<mxfile host="app.diagrams.net" modified="2022-04-25T15:46:21.086Z" agent="5.0 (Windows NT 10.0; Win64; x64) AppleWebKit/537.36 (KHTML, like Gecko) Chrome/100.0.4896.127 Safari/537.36 Edg/100.0.1185.50" etag="28c6ivctVwKQn5ji8K6u" version="17.4.6" type="github">
  <diagram id="N-QfRHFfNPUQguxJq-45" name="Page-1">
    <mxGraphModel dx="961" dy="648" grid="1" gridSize="10" guides="1" tooltips="1" connect="1" arrows="1" fold="1" page="1" pageScale="1" pageWidth="827" pageHeight="1169" math="0" shadow="0">
      <root>
        <mxCell id="0" />
        <mxCell id="1" parent="0" />
        <mxCell id="ZwVxhmiOvtNm_YkMYMKT-5" style="edgeStyle=orthogonalEdgeStyle;rounded=0;orthogonalLoop=1;jettySize=auto;html=1;entryX=0.5;entryY=0;entryDx=0;entryDy=0;" edge="1" parent="1" source="ZwVxhmiOvtNm_YkMYMKT-1" target="ZwVxhmiOvtNm_YkMYMKT-2">
          <mxGeometry relative="1" as="geometry" />
        </mxCell>
        <mxCell id="ZwVxhmiOvtNm_YkMYMKT-6" style="edgeStyle=orthogonalEdgeStyle;rounded=0;orthogonalLoop=1;jettySize=auto;html=1;exitX=0.5;exitY=1;exitDx=0;exitDy=0;" edge="1" parent="1" source="ZwVxhmiOvtNm_YkMYMKT-1" target="ZwVxhmiOvtNm_YkMYMKT-3">
          <mxGeometry relative="1" as="geometry" />
        </mxCell>
        <mxCell id="ZwVxhmiOvtNm_YkMYMKT-1" value="开始" style="rounded=0;whiteSpace=wrap;html=1;" vertex="1" parent="1">
          <mxGeometry x="340" y="100" width="120" height="60" as="geometry" />
        </mxCell>
        <mxCell id="ZwVxhmiOvtNm_YkMYMKT-8" style="edgeStyle=orthogonalEdgeStyle;rounded=0;orthogonalLoop=1;jettySize=auto;html=1;entryX=0.5;entryY=0;entryDx=0;entryDy=0;" edge="1" parent="1" source="ZwVxhmiOvtNm_YkMYMKT-2" target="ZwVxhmiOvtNm_YkMYMKT-7">
          <mxGeometry relative="1" as="geometry" />
        </mxCell>
        <mxCell id="ZwVxhmiOvtNm_YkMYMKT-10" style="edgeStyle=orthogonalEdgeStyle;rounded=0;orthogonalLoop=1;jettySize=auto;html=1;entryX=0.5;entryY=0;entryDx=0;entryDy=0;" edge="1" parent="1" source="ZwVxhmiOvtNm_YkMYMKT-2" target="ZwVxhmiOvtNm_YkMYMKT-9">
          <mxGeometry relative="1" as="geometry" />
        </mxCell>
        <mxCell id="ZwVxhmiOvtNm_YkMYMKT-2" value="警察" style="rounded=0;whiteSpace=wrap;html=1;" vertex="1" parent="1">
          <mxGeometry x="230" y="260" width="120" height="60" as="geometry" />
        </mxCell>
        <mxCell id="ZwVxhmiOvtNm_YkMYMKT-13" style="edgeStyle=orthogonalEdgeStyle;rounded=0;orthogonalLoop=1;jettySize=auto;html=1;entryX=0.5;entryY=0;entryDx=0;entryDy=0;" edge="1" parent="1" source="ZwVxhmiOvtNm_YkMYMKT-3" target="ZwVxhmiOvtNm_YkMYMKT-12">
          <mxGeometry relative="1" as="geometry" />
        </mxCell>
        <mxCell id="ZwVxhmiOvtNm_YkMYMKT-18" style="edgeStyle=orthogonalEdgeStyle;rounded=0;orthogonalLoop=1;jettySize=auto;html=1;exitX=0.5;exitY=1;exitDx=0;exitDy=0;" edge="1" parent="1" source="ZwVxhmiOvtNm_YkMYMKT-3" target="ZwVxhmiOvtNm_YkMYMKT-14">
          <mxGeometry relative="1" as="geometry" />
        </mxCell>
        <mxCell id="ZwVxhmiOvtNm_YkMYMKT-3" value="小偷" style="rounded=0;whiteSpace=wrap;html=1;" vertex="1" parent="1">
          <mxGeometry x="450" y="260" width="120" height="60" as="geometry" />
        </mxCell>
        <mxCell id="ZwVxhmiOvtNm_YkMYMKT-11" style="edgeStyle=orthogonalEdgeStyle;rounded=0;orthogonalLoop=1;jettySize=auto;html=1;entryX=0;entryY=0.5;entryDx=0;entryDy=0;" edge="1" parent="1" source="ZwVxhmiOvtNm_YkMYMKT-7" target="ZwVxhmiOvtNm_YkMYMKT-1">
          <mxGeometry relative="1" as="geometry">
            <Array as="points">
              <mxPoint x="70" y="420" />
              <mxPoint x="70" y="130" />
            </Array>
          </mxGeometry>
        </mxCell>
        <mxCell id="ZwVxhmiOvtNm_YkMYMKT-7" value="掉落" style="rounded=0;whiteSpace=wrap;html=1;" vertex="1" parent="1">
          <mxGeometry x="110" y="390" width="120" height="60" as="geometry" />
        </mxCell>
        <mxCell id="ZwVxhmiOvtNm_YkMYMKT-9" value="送回警察局" style="rounded=0;whiteSpace=wrap;html=1;" vertex="1" parent="1">
          <mxGeometry x="230" y="510" width="120" height="60" as="geometry" />
        </mxCell>
        <mxCell id="ZwVxhmiOvtNm_YkMYMKT-12" value="送到委托人目的地" style="rounded=0;whiteSpace=wrap;html=1;" vertex="1" parent="1">
          <mxGeometry x="450" y="510" width="120" height="60" as="geometry" />
        </mxCell>
        <mxCell id="ZwVxhmiOvtNm_YkMYMKT-16" style="edgeStyle=orthogonalEdgeStyle;rounded=0;orthogonalLoop=1;jettySize=auto;html=1;entryX=1;entryY=0.5;entryDx=0;entryDy=0;" edge="1" parent="1" source="ZwVxhmiOvtNm_YkMYMKT-14" target="ZwVxhmiOvtNm_YkMYMKT-1">
          <mxGeometry relative="1" as="geometry">
            <Array as="points">
              <mxPoint x="800" y="410" />
              <mxPoint x="800" y="130" />
            </Array>
          </mxGeometry>
        </mxCell>
        <mxCell id="ZwVxhmiOvtNm_YkMYMKT-14" value="掉落" style="rounded=0;whiteSpace=wrap;html=1;" vertex="1" parent="1">
          <mxGeometry x="640" y="380" width="120" height="60" as="geometry" />
        </mxCell>
        <mxCell id="ZwVxhmiOvtNm_YkMYMKT-19" value="小偷背包增加一个思必达" style="rounded=1;whiteSpace=wrap;html=1;" vertex="1" parent="1">
          <mxGeometry x="640" y="450" width="120" height="60" as="geometry" />
        </mxCell>
      </root>
    </mxGraphModel>
  </diagram>
</mxfile>
